<mxfile host="app.diagrams.net" modified="2023-08-31T13:27:35.297Z" agent="Mozilla/5.0 (Windows NT 10.0; Win64; x64) AppleWebKit/537.36 (KHTML, like Gecko) Chrome/116.0.0.0 Safari/537.36" etag="Q0HQDutGuVgb0KWpOUyS" version="21.7.1" type="device">
  <diagram name="Страница — 1" id="Ip1DsPATojtK-F__56BR">
    <mxGraphModel dx="2261" dy="1967" grid="1" gridSize="10" guides="1" tooltips="1" connect="1" arrows="1" fold="1" page="1" pageScale="1" pageWidth="827" pageHeight="1169" math="0" shadow="0">
      <root>
        <mxCell id="0" />
        <mxCell id="1" parent="0" />
        <mxCell id="YLPDR2H__oMzVMPPQTR0-7" style="edgeStyle=orthogonalEdgeStyle;rounded=0;orthogonalLoop=1;jettySize=auto;html=1;exitX=0.5;exitY=1;exitDx=0;exitDy=0;entryX=0.5;entryY=0;entryDx=0;entryDy=0;" edge="1" parent="1" source="YLPDR2H__oMzVMPPQTR0-1" target="YLPDR2H__oMzVMPPQTR0-5">
          <mxGeometry relative="1" as="geometry" />
        </mxCell>
        <mxCell id="YLPDR2H__oMzVMPPQTR0-1" value="&lt;font style=&quot;font-size: 15px;&quot;&gt;/start&amp;nbsp;&lt;/font&gt;" style="rounded=0;whiteSpace=wrap;html=1;fillColor=#dae8fc;strokeColor=#6c8ebf;" vertex="1" parent="1">
          <mxGeometry x="50" y="45" width="70" height="50" as="geometry" />
        </mxCell>
        <mxCell id="YLPDR2H__oMzVMPPQTR0-6" style="edgeStyle=orthogonalEdgeStyle;rounded=0;orthogonalLoop=1;jettySize=auto;html=1;exitX=0.5;exitY=1;exitDx=0;exitDy=0;" edge="1" parent="1" source="YLPDR2H__oMzVMPPQTR0-2" target="YLPDR2H__oMzVMPPQTR0-5">
          <mxGeometry relative="1" as="geometry" />
        </mxCell>
        <mxCell id="YLPDR2H__oMzVMPPQTR0-2" value="&lt;font style=&quot;font-size: 15px;&quot;&gt;/reg&amp;nbsp;&lt;/font&gt;" style="rounded=0;whiteSpace=wrap;html=1;fillColor=#dae8fc;strokeColor=#6c8ebf;" vertex="1" parent="1">
          <mxGeometry x="150" y="45" width="70" height="50" as="geometry" />
        </mxCell>
        <mxCell id="YLPDR2H__oMzVMPPQTR0-17" style="edgeStyle=orthogonalEdgeStyle;rounded=0;orthogonalLoop=1;jettySize=auto;html=1;exitX=0.5;exitY=1;exitDx=0;exitDy=0;entryX=0.5;entryY=0;entryDx=0;entryDy=0;" edge="1" parent="1" source="YLPDR2H__oMzVMPPQTR0-3" target="YLPDR2H__oMzVMPPQTR0-20">
          <mxGeometry relative="1" as="geometry">
            <mxPoint x="795" y="150" as="targetPoint" />
          </mxGeometry>
        </mxCell>
        <mxCell id="YLPDR2H__oMzVMPPQTR0-3" value="&lt;font style=&quot;font-size: 15px;&quot;&gt;/new_comment&lt;/font&gt;" style="rounded=0;whiteSpace=wrap;html=1;fillColor=#dae8fc;strokeColor=#6c8ebf;" vertex="1" parent="1">
          <mxGeometry x="730" y="45" width="140" height="50" as="geometry" />
        </mxCell>
        <mxCell id="YLPDR2H__oMzVMPPQTR0-11" value="Да" style="edgeStyle=orthogonalEdgeStyle;rounded=0;orthogonalLoop=1;jettySize=auto;html=1;exitX=0;exitY=0.5;exitDx=0;exitDy=0;entryX=0;entryY=0;entryDx=0;entryDy=0;" edge="1" parent="1" source="YLPDR2H__oMzVMPPQTR0-5" target="YLPDR2H__oMzVMPPQTR0-20">
          <mxGeometry x="-0.8607" relative="1" as="geometry">
            <mxPoint x="-14.999999999999773" y="260" as="targetPoint" />
            <Array as="points">
              <mxPoint x="-10" y="175" />
              <mxPoint x="-10" />
              <mxPoint x="690" />
              <mxPoint x="690" y="135" />
            </Array>
            <mxPoint as="offset" />
          </mxGeometry>
        </mxCell>
        <mxCell id="YLPDR2H__oMzVMPPQTR0-12" value="Нет" style="edgeStyle=orthogonalEdgeStyle;rounded=0;orthogonalLoop=1;jettySize=auto;html=1;exitX=1;exitY=0.5;exitDx=0;exitDy=0;entryX=0.5;entryY=0;entryDx=0;entryDy=0;" edge="1" parent="1" source="YLPDR2H__oMzVMPPQTR0-5" target="YLPDR2H__oMzVMPPQTR0-13">
          <mxGeometry relative="1" as="geometry">
            <mxPoint x="290" y="255" as="targetPoint" />
          </mxGeometry>
        </mxCell>
        <mxCell id="YLPDR2H__oMzVMPPQTR0-5" value="Проверка регистрации&lt;br&gt;&lt;font color=&quot;#4d4d4d&quot;&gt;/get_user_id&lt;/font&gt;" style="rhombus;whiteSpace=wrap;html=1;" vertex="1" parent="1">
          <mxGeometry x="10" y="135" width="250" height="80" as="geometry" />
        </mxCell>
        <mxCell id="YLPDR2H__oMzVMPPQTR0-14" style="edgeStyle=orthogonalEdgeStyle;rounded=0;orthogonalLoop=1;jettySize=auto;html=1;exitX=0.5;exitY=1;exitDx=0;exitDy=0;entryX=0.5;entryY=0;entryDx=0;entryDy=0;" edge="1" parent="1" source="YLPDR2H__oMzVMPPQTR0-13" target="YLPDR2H__oMzVMPPQTR0-16">
          <mxGeometry relative="1" as="geometry">
            <mxPoint x="290" y="365" as="targetPoint" />
          </mxGeometry>
        </mxCell>
        <mxCell id="YLPDR2H__oMzVMPPQTR0-13" value="Введите данные в формате Иванов И.И." style="rounded=0;whiteSpace=wrap;html=1;fillColor=#ffe6cc;strokeColor=#d79b00;" vertex="1" parent="1">
          <mxGeometry x="210" y="225" width="160" height="60" as="geometry" />
        </mxCell>
        <mxCell id="YLPDR2H__oMzVMPPQTR0-21" style="edgeStyle=orthogonalEdgeStyle;rounded=0;orthogonalLoop=1;jettySize=auto;html=1;exitX=0.5;exitY=1;exitDx=0;exitDy=0;entryX=0.5;entryY=0;entryDx=0;entryDy=0;" edge="1" parent="1" source="YLPDR2H__oMzVMPPQTR0-16" target="YLPDR2H__oMzVMPPQTR0-22">
          <mxGeometry relative="1" as="geometry">
            <mxPoint x="290.2068965517242" y="385" as="targetPoint" />
          </mxGeometry>
        </mxCell>
        <mxCell id="YLPDR2H__oMzVMPPQTR0-59" value="" style="edgeStyle=orthogonalEdgeStyle;rounded=0;orthogonalLoop=1;jettySize=auto;html=1;" edge="1" parent="1" source="YLPDR2H__oMzVMPPQTR0-16" target="YLPDR2H__oMzVMPPQTR0-58">
          <mxGeometry relative="1" as="geometry" />
        </mxCell>
        <mxCell id="YLPDR2H__oMzVMPPQTR0-16" value="Ожидание ввода ФИО" style="ellipse;whiteSpace=wrap;html=1;" vertex="1" parent="1">
          <mxGeometry x="230" y="310" width="120" height="50" as="geometry" />
        </mxCell>
        <mxCell id="YLPDR2H__oMzVMPPQTR0-19" style="edgeStyle=orthogonalEdgeStyle;rounded=0;orthogonalLoop=1;jettySize=auto;html=1;exitX=0;exitY=0.5;exitDx=0;exitDy=0;entryX=1;entryY=0.5;entryDx=0;entryDy=0;" edge="1" parent="1" source="YLPDR2H__oMzVMPPQTR0-18" target="YLPDR2H__oMzVMPPQTR0-3">
          <mxGeometry relative="1" as="geometry" />
        </mxCell>
        <mxCell id="YLPDR2H__oMzVMPPQTR0-18" value="Проверка по расписанию" style="ellipse;whiteSpace=wrap;html=1;aspect=fixed;fillColor=#f8cecc;strokeColor=#b85450;" vertex="1" parent="1">
          <mxGeometry x="915" y="30" width="80" height="80" as="geometry" />
        </mxCell>
        <mxCell id="YLPDR2H__oMzVMPPQTR0-23" value="Да" style="edgeStyle=orthogonalEdgeStyle;rounded=0;orthogonalLoop=1;jettySize=auto;html=1;exitX=0;exitY=0.5;exitDx=0;exitDy=0;entryX=0.5;entryY=0;entryDx=0;entryDy=0;" edge="1" parent="1" source="YLPDR2H__oMzVMPPQTR0-20" target="YLPDR2H__oMzVMPPQTR0-35">
          <mxGeometry relative="1" as="geometry">
            <mxPoint x="649.0344827586209" y="230" as="targetPoint" />
          </mxGeometry>
        </mxCell>
        <mxCell id="YLPDR2H__oMzVMPPQTR0-26" value="Нет" style="edgeStyle=orthogonalEdgeStyle;rounded=0;orthogonalLoop=1;jettySize=auto;html=1;exitX=1;exitY=0.5;exitDx=0;exitDy=0;entryX=0.5;entryY=0;entryDx=0;entryDy=0;" edge="1" parent="1" source="YLPDR2H__oMzVMPPQTR0-20" target="YLPDR2H__oMzVMPPQTR0-27">
          <mxGeometry x="0.0772" relative="1" as="geometry">
            <mxPoint x="984" y="240" as="targetPoint" />
            <mxPoint as="offset" />
          </mxGeometry>
        </mxCell>
        <mxCell id="YLPDR2H__oMzVMPPQTR0-20" value="Проверка комминтариев&lt;br&gt;&lt;font color=&quot;#4d4d4d&quot;&gt;/get_sk_comments&lt;/font&gt;" style="rhombus;whiteSpace=wrap;html=1;" vertex="1" parent="1">
          <mxGeometry x="674" y="115" width="250" height="80" as="geometry" />
        </mxCell>
        <mxCell id="YLPDR2H__oMzVMPPQTR0-44" style="edgeStyle=orthogonalEdgeStyle;rounded=0;orthogonalLoop=1;jettySize=auto;html=1;exitX=0.5;exitY=1;exitDx=0;exitDy=0;entryX=0.5;entryY=0;entryDx=0;entryDy=0;" edge="1" parent="1" source="YLPDR2H__oMzVMPPQTR0-22" target="YLPDR2H__oMzVMPPQTR0-43">
          <mxGeometry relative="1" as="geometry" />
        </mxCell>
        <mxCell id="YLPDR2H__oMzVMPPQTR0-22" value="Проверка ввода" style="rhombus;whiteSpace=wrap;html=1;" vertex="1" parent="1">
          <mxGeometry x="202.5" y="390" width="175" height="50" as="geometry" />
        </mxCell>
        <mxCell id="YLPDR2H__oMzVMPPQTR0-28" style="edgeStyle=orthogonalEdgeStyle;rounded=0;orthogonalLoop=1;jettySize=auto;html=1;exitX=0.5;exitY=1;exitDx=0;exitDy=0;entryX=0.5;entryY=0;entryDx=0;entryDy=0;" edge="1" parent="1" source="YLPDR2H__oMzVMPPQTR0-35" target="YLPDR2H__oMzVMPPQTR0-29">
          <mxGeometry relative="1" as="geometry">
            <mxPoint x="648.689655172414" y="340" as="targetPoint" />
            <mxPoint x="649" y="290" as="sourcePoint" />
          </mxGeometry>
        </mxCell>
        <mxCell id="YLPDR2H__oMzVMPPQTR0-27" value="Пустые комментарии не найдены" style="rounded=0;whiteSpace=wrap;html=1;fillColor=#ffe6cc;strokeColor=#d79b00;" vertex="1" parent="1">
          <mxGeometry x="914" y="230" width="130" height="60" as="geometry" />
        </mxCell>
        <mxCell id="YLPDR2H__oMzVMPPQTR0-37" style="edgeStyle=orthogonalEdgeStyle;rounded=0;orthogonalLoop=1;jettySize=auto;html=1;exitX=0.5;exitY=1;exitDx=0;exitDy=0;" edge="1" parent="1" source="YLPDR2H__oMzVMPPQTR0-29" target="YLPDR2H__oMzVMPPQTR0-36">
          <mxGeometry relative="1" as="geometry" />
        </mxCell>
        <mxCell id="YLPDR2H__oMzVMPPQTR0-57" value="" style="edgeStyle=orthogonalEdgeStyle;rounded=0;orthogonalLoop=1;jettySize=auto;html=1;" edge="1" parent="1" source="YLPDR2H__oMzVMPPQTR0-29" target="YLPDR2H__oMzVMPPQTR0-56">
          <mxGeometry relative="1" as="geometry" />
        </mxCell>
        <mxCell id="YLPDR2H__oMzVMPPQTR0-29" value="Ожидание ввода комментария" style="ellipse;whiteSpace=wrap;html=1;" vertex="1" parent="1">
          <mxGeometry x="589" y="310" width="120" height="50" as="geometry" />
        </mxCell>
        <mxCell id="YLPDR2H__oMzVMPPQTR0-32" style="edgeStyle=orthogonalEdgeStyle;rounded=0;orthogonalLoop=1;jettySize=auto;html=1;exitX=1;exitY=0.5;exitDx=0;exitDy=0;entryX=0;entryY=0.5;entryDx=0;entryDy=0;" edge="1" parent="1" source="YLPDR2H__oMzVMPPQTR0-31" target="YLPDR2H__oMzVMPPQTR0-35">
          <mxGeometry relative="1" as="geometry">
            <mxPoint x="569" y="260" as="targetPoint" />
          </mxGeometry>
        </mxCell>
        <mxCell id="YLPDR2H__oMzVMPPQTR0-48" style="edgeStyle=orthogonalEdgeStyle;rounded=0;orthogonalLoop=1;jettySize=auto;html=1;exitX=0.5;exitY=1;exitDx=0;exitDy=0;entryX=0;entryY=0.25;entryDx=0;entryDy=0;fillColor=#f5f5f5;strokeColor=#666666;" edge="1" parent="1" source="YLPDR2H__oMzVMPPQTR0-31" target="YLPDR2H__oMzVMPPQTR0-36">
          <mxGeometry relative="1" as="geometry" />
        </mxCell>
        <mxCell id="YLPDR2H__oMzVMPPQTR0-31" value="&lt;div style=&quot;font-size: 10px;&quot;&gt;&lt;font style=&quot;font-size: 10px;&quot;&gt;&amp;nbsp; &amp;nbsp; &amp;nbsp; &quot;id&quot;: 2,&lt;/font&gt;&lt;/div&gt;&lt;div style=&quot;font-size: 10px;&quot;&gt;&lt;font style=&quot;font-size: 10px;&quot;&gt;&amp;nbsp; &amp;nbsp; &amp;nbsp; &quot;user_id&quot;: 390895078,&lt;/font&gt;&lt;/div&gt;&lt;div style=&quot;font-size: 10px;&quot;&gt;&lt;font style=&quot;font-size: 10px;&quot;&gt;&amp;nbsp; &amp;nbsp; &amp;nbsp; &quot;date&quot;: &quot;2023-08-02&quot;,&lt;/font&gt;&lt;/div&gt;&lt;div style=&quot;font-size: 10px;&quot;&gt;&lt;font style=&quot;font-size: 10px;&quot;&gt;&amp;nbsp; &amp;nbsp; &amp;nbsp; &quot;name&quot;: &quot;Навание &quot;,&lt;/font&gt;&lt;/div&gt;&lt;div style=&quot;font-size: 10px;&quot;&gt;&lt;font style=&quot;font-size: 10px;&quot;&gt;&amp;nbsp; &amp;nbsp; &amp;nbsp; &quot;description&quot;: &quot; Описание &quot;&lt;/font&gt;&lt;/div&gt;" style="rounded=0;whiteSpace=wrap;html=1;align=left;fillColor=#f5f5f5;fontColor=#333333;strokeColor=#666666;" vertex="1" parent="1">
          <mxGeometry x="414" y="225" width="140" height="70" as="geometry" />
        </mxCell>
        <mxCell id="YLPDR2H__oMzVMPPQTR0-35" value="Прокомментируйте слдующую операцию... Название Описание" style="rounded=0;whiteSpace=wrap;html=1;fillColor=#ffe6cc;strokeColor=#d79b00;" vertex="1" parent="1">
          <mxGeometry x="589" y="230" width="120" height="60" as="geometry" />
        </mxCell>
        <mxCell id="YLPDR2H__oMzVMPPQTR0-41" value="ОК" style="edgeStyle=orthogonalEdgeStyle;rounded=0;orthogonalLoop=1;jettySize=auto;html=1;exitX=0.5;exitY=1;exitDx=0;exitDy=0;" edge="1" parent="1" source="YLPDR2H__oMzVMPPQTR0-36" target="YLPDR2H__oMzVMPPQTR0-40">
          <mxGeometry relative="1" as="geometry" />
        </mxCell>
        <mxCell id="YLPDR2H__oMzVMPPQTR0-51" value="Отмена" style="edgeStyle=orthogonalEdgeStyle;rounded=0;orthogonalLoop=1;jettySize=auto;html=1;exitX=1;exitY=0.5;exitDx=0;exitDy=0;entryX=0;entryY=0.5;entryDx=0;entryDy=0;" edge="1" parent="1" source="YLPDR2H__oMzVMPPQTR0-36" target="YLPDR2H__oMzVMPPQTR0-52">
          <mxGeometry relative="1" as="geometry">
            <mxPoint x="820" y="420" as="targetPoint" />
          </mxGeometry>
        </mxCell>
        <mxCell id="YLPDR2H__oMzVMPPQTR0-36" value="Подтверждение&lt;br&gt;ОК / Отмена" style="rounded=0;whiteSpace=wrap;html=1;fillColor=#ffe6cc;strokeColor=#d79b00;" vertex="1" parent="1">
          <mxGeometry x="589" y="390" width="120" height="60" as="geometry" />
        </mxCell>
        <mxCell id="YLPDR2H__oMzVMPPQTR0-42" style="edgeStyle=orthogonalEdgeStyle;rounded=0;orthogonalLoop=1;jettySize=auto;html=1;exitX=1;exitY=0.5;exitDx=0;exitDy=0;entryX=0;entryY=0.5;entryDx=0;entryDy=0;fillColor=#f5f5f5;strokeColor=#666666;" edge="1" parent="1" source="YLPDR2H__oMzVMPPQTR0-39" target="YLPDR2H__oMzVMPPQTR0-40">
          <mxGeometry relative="1" as="geometry" />
        </mxCell>
        <mxCell id="YLPDR2H__oMzVMPPQTR0-45" style="edgeStyle=orthogonalEdgeStyle;rounded=0;orthogonalLoop=1;jettySize=auto;html=1;exitX=0.5;exitY=0;exitDx=0;exitDy=0;entryX=0;entryY=0.75;entryDx=0;entryDy=0;strokeColor=#666666;" edge="1" parent="1" source="YLPDR2H__oMzVMPPQTR0-39" target="YLPDR2H__oMzVMPPQTR0-36">
          <mxGeometry relative="1" as="geometry" />
        </mxCell>
        <mxCell id="YLPDR2H__oMzVMPPQTR0-39" value="&lt;div style=&quot;font-size: 10px;&quot;&gt;&lt;font style=&quot;font-size: 10px;&quot;&gt;&amp;nbsp; &amp;nbsp; &amp;nbsp; &quot;id&quot;: 2,&lt;/font&gt;&lt;/div&gt;&lt;div style=&quot;font-size: 10px;&quot;&gt;&lt;font style=&quot;font-size: 10px;&quot;&gt;&amp;nbsp; &amp;nbsp; &amp;nbsp; &quot;comment&quot;: &quot; текст&quot;&lt;/font&gt;&lt;/div&gt;" style="rounded=0;whiteSpace=wrap;html=1;align=left;fillColor=#f5f5f5;fontColor=#333333;strokeColor=#666666;" vertex="1" parent="1">
          <mxGeometry x="414" y="490" width="140" height="50" as="geometry" />
        </mxCell>
        <mxCell id="YLPDR2H__oMzVMPPQTR0-40" value="Отправка&lt;br&gt;&lt;font color=&quot;#666666&quot;&gt;/update_comment&lt;/font&gt;" style="rounded=0;whiteSpace=wrap;html=1;fillColor=#d5e8d4;strokeColor=#82b366;" vertex="1" parent="1">
          <mxGeometry x="589" y="485" width="120" height="60" as="geometry" />
        </mxCell>
        <mxCell id="YLPDR2H__oMzVMPPQTR0-43" value="Отправка&lt;br&gt;&lt;font color=&quot;#666666&quot;&gt;/add_user&lt;/font&gt;" style="rounded=0;whiteSpace=wrap;html=1;fillColor=#d5e8d4;strokeColor=#82b366;" vertex="1" parent="1">
          <mxGeometry x="230" y="480" width="120" height="60" as="geometry" />
        </mxCell>
        <mxCell id="YLPDR2H__oMzVMPPQTR0-49" value="&lt;font style=&quot;font-size: 14px;&quot;&gt;Команды webhook&lt;/font&gt;" style="rounded=1;whiteSpace=wrap;html=1;fillColor=#f5f5f5;strokeColor=#666666;fontColor=#333333;" vertex="1" parent="1">
          <mxGeometry x="350" y="-80" width="120" height="60" as="geometry" />
        </mxCell>
        <mxCell id="YLPDR2H__oMzVMPPQTR0-52" value="Отменено" style="rounded=0;whiteSpace=wrap;html=1;fillColor=#ffe6cc;strokeColor=#d79b00;" vertex="1" parent="1">
          <mxGeometry x="770" y="405" width="100" height="30" as="geometry" />
        </mxCell>
        <mxCell id="YLPDR2H__oMzVMPPQTR0-54" style="edgeStyle=orthogonalEdgeStyle;rounded=0;orthogonalLoop=1;jettySize=auto;html=1;exitX=0.5;exitY=1;exitDx=0;exitDy=0;entryX=0.5;entryY=0;entryDx=0;entryDy=0;dashed=1;endArrow=none;endFill=0;" edge="1" parent="1" source="YLPDR2H__oMzVMPPQTR0-53" target="YLPDR2H__oMzVMPPQTR0-18">
          <mxGeometry relative="1" as="geometry" />
        </mxCell>
        <mxCell id="YLPDR2H__oMzVMPPQTR0-53" value="&lt;font style=&quot;font-size: 14px;&quot;&gt;Cron Job&lt;/font&gt;" style="rounded=1;whiteSpace=wrap;html=1;fillColor=#f5f5f5;strokeColor=#666666;fontColor=#333333;" vertex="1" parent="1">
          <mxGeometry x="895" y="-80" width="120" height="60" as="geometry" />
        </mxCell>
        <mxCell id="YLPDR2H__oMzVMPPQTR0-56" value="is Await Comment" style="rounded=1;whiteSpace=wrap;html=1;" vertex="1" parent="1">
          <mxGeometry x="730" y="322.5" width="110" height="25" as="geometry" />
        </mxCell>
        <mxCell id="YLPDR2H__oMzVMPPQTR0-58" value="isAwaitFio" style="rounded=1;whiteSpace=wrap;html=1;" vertex="1" parent="1">
          <mxGeometry x="370" y="322.5" width="70" height="25" as="geometry" />
        </mxCell>
      </root>
    </mxGraphModel>
  </diagram>
</mxfile>
